<svg xmlns="http://www.w3.org/2000/svg" xmlns:xlink="http://www.w3.org/1999/xlink" id="Layer_1" x="0px" y="0px" viewBox="0 0 841.9 245.7" style="enable-background:new 0 0 841.9 245.7;" xml:space="preserve"><g>	<g>		<path d="M91.9,77.3c-8.7,0-18,1.4-28,4.3c-10,2.9-18.5,6.4-25.3,10.7l9.8,24.7c6.5-3.8,13.4-6.7,20.6-8.8   c7.2-2.1,13.7-3.2,19.6-3.2c7.7,0,13.1,1.5,16.2,4.4c3.1,2.9,4.7,8,4.7,15.2v4.4h-6.4c-17.3,0-30.9,1.1-40.9,3.4   c-10,2.3-17.2,6-21.7,11c-4.5,5.1-6.7,12-6.7,20.8c0,7.2,1.9,13.7,5.8,19.6c3.8,5.9,9.1,10.5,15.7,13.7s14,4.9,22.2,4.9   c7.7,0,14.4-1.8,20.1-5.3c5.7-3.5,9.8-8.4,12.2-14.6v17.9h35v-71c0-17.8-4.3-30.9-12.9-39.4C123.1,81.6,109.8,77.3,91.9,77.3z    M109.3,151.1c0,7.7-2.2,13.9-6.6,18.7c-4.4,4.8-10.2,7.2-17.4,7.2c-4.6,0-8.4-1.5-11.4-4.4c-3-2.9-4.5-6.6-4.5-11   c0-5.5,2.7-9.4,8-11.5c5.3-2.1,14.6-3.2,27.8-3.2h4.2V151.1z M172.2,200.5h37V27.9h-37V200.5z M237.6,200.5h37V27.9h-37V200.5z    M365.9,129.7l-20.3-4.7c-4.9-1.3-8.3-2.7-10.3-4.2c-2-1.5-2.9-3.5-2.9-6.1c0-3.6,1.6-6.4,4.9-8.3c3.3-2,7.8-2.9,13.5-2.9   c12.4,0,25,4.4,37.7,13.2l9.8-24.5c-6.5-4.7-13.9-8.4-22-11c-8.2-2.6-16.6-3.9-25.2-3.9c-10.1,0-19.1,1.6-27.1,4.9   c-7.9,3.3-14,7.8-18.4,13.5c-4.3,5.7-6.5,12.3-6.5,19.8c0,9.5,2.7,16.9,8.2,22.4c5.5,5.5,14,9.5,25.6,12.1l19.6,4.4   c6,1.3,10.2,2.8,12.4,4.4c2.2,1.6,3.3,3.9,3.3,6.9c0,3.3-1.6,5.8-4.8,7.7c-3.2,1.9-7.6,2.8-13.3,2.8c-8,0-15.9-1.2-23.8-3.7   c-7.8-2.4-15-5.9-21.5-10.3l-9.8,25.5c6.7,4.7,14.6,8.4,23.9,10.9c9.2,2.5,19.4,3.8,30.5,3.8c16.2,0,28.9-3.3,38.1-9.9   c9.2-6.6,13.8-15.7,13.8-27.3c0-9.6-2.8-17.3-8.4-22.9C387.1,136.7,378.1,132.5,365.9,129.7z M513.5,84.9   c-9.6-5.1-20.8-7.6-33.5-7.6s-23.9,2.5-33.5,7.6c-9.6,5.1-17.1,12.3-22.3,21.7c-5.2,9.4-7.8,20.4-7.8,33.2   c0,12.7,2.6,23.8,7.8,33.2c5.2,9.4,12.6,16.7,22.3,21.8c9.6,5.1,20.8,7.7,33.5,7.7s23.9-2.6,33.5-7.7c9.6-5.1,17.1-12.4,22.3-21.8   c5.2-9.4,7.8-20.4,7.8-33.2c0-12.7-2.6-23.8-7.8-33.2C530.6,97.2,523.2,90,513.5,84.9z M480,174.3c-18,0-26.9-11.5-26.9-34.5   c0-23,9-34.5,26.9-34.5c8.7,0,15.3,2.9,20,8.6c4.7,5.7,7,14.4,7,26C506.9,162.8,498,174.3,480,174.3z M696.2,153.7v-45.8h30.1   V80.3h-30.1V45h-37v35.3h-17.6h-5.1h-25v-4.9c0-7.3,1.9-12.6,5.8-15.8c3.8-3.2,10.5-4.9,20-5.3l11.5-0.5l-2.2-27.2L633,27.4   c-19.6,1.1-34.2,6-43.7,14.6c-9.5,8.6-14.5,21.3-14.8,38.3h-22.8v27.7h22.8v92.6h37v-92.6h25h5.1h17.6v46   c0,16.3,4.2,28.5,12.6,36.5c8.4,8,21.8,12,40,12c4.7,0,9.5-0.3,14.2-1l2-26.9c-4.1,0.5-8,0.7-11.8,0.7   C702.9,175.3,696.2,168.1,696.2,153.7z M778.2,38.6c-1.1-2.5-2.6-4.7-4.5-6.5c-1.9-1.8-4.2-3.3-6.8-4.3c-2.6-1.1-5.5-1.6-8.6-1.6   c-3.1,0-5.9,0.5-8.5,1.6c-2.6,1.1-4.9,2.5-6.8,4.3c-1.9,1.8-3.4,4-4.5,6.5c-1.1,2.5-1.6,5.3-1.6,8.2c0,3,0.5,5.7,1.6,8.2   c1.1,2.5,2.6,4.7,4.5,6.6c1.9,1.9,4.2,3.3,6.8,4.4c2.6,1.1,5.4,1.6,8.5,1.6c3.1,0,5.9-0.5,8.6-1.6c2.6-1.1,4.9-2.5,6.8-4.4   c1.9-1.9,3.4-4,4.5-6.6c1.1-2.5,1.6-5.3,1.6-8.2C779.8,43.8,779.3,41.1,778.2,38.6z M775.6,54.2c-1,2.2-2.3,4.2-4,5.8   c-1.7,1.6-3.7,2.8-6,3.7c-2.3,0.9-4.7,1.3-7.4,1.3c-2.7,0-5.2-0.5-7.4-1.4c-2.3-0.9-4.2-2.2-5.9-3.9c-1.7-1.6-2.9-3.6-3.9-5.8   c-0.9-2.2-1.4-4.6-1.4-7.2c0-2.6,0.5-4.9,1.4-7.1c0.9-2.2,2.2-4.1,3.9-5.7c1.7-1.6,3.6-2.9,5.9-3.8c2.3-0.9,4.7-1.4,7.4-1.4   c2.7,0,5.2,0.5,7.4,1.4c2.3,0.9,4.3,2.2,6,3.8c1.7,1.6,3,3.5,3.9,5.8c0.9,2.2,1.4,4.6,1.4,7.2C777,49.5,776.5,52,775.6,54.2z    M766.8,47c0.9-1.4,1.4-2.9,1.4-4.6c0-1-0.2-2-0.6-3c-0.4-1-0.9-1.9-1.6-2.7c-0.7-0.8-1.5-1.4-2.5-1.9c-1-0.5-2-0.7-3.2-0.7h-11.1   v25.4h4.5v-8.9h4.8l5.6,8.9h5.1l-6.1-9.7C764.6,49.3,765.8,48.4,766.8,47z M760,46.6h-6.2v-8.5h6.1c1.1,0,2,0.4,2.8,1.1   c0.7,0.7,1.1,1.8,1.1,3.1c0,1.3-0.3,2.3-1,3.1C762.1,46.3,761.2,46.6,760,46.6z"></path>	</g></g><g></g><g></g><g></g><g></g><g></g><g></g></svg>